<?xml version="1.0" encoding="UTF-8"?>
<svg width="195px" height="144px" viewBox="0 0 195 144" version="1.1" xmlns="http://www.w3.org/2000/svg" xmlns:xlink="http://www.w3.org/1999/xlink">
    <!-- Generator: Sketch 41.2 (35397) - http://www.bohemiancoding.com/sketch -->
    <title>JALogo_color</title>
    <desc>Created with Sketch.</desc>
    <defs></defs>
    <g id="Page-1" stroke="none" stroke-width="1" fill="none" fill-rule="evenodd">
        <g id="Member" transform="translate(55.000000, 128.000000)" fill="#21205F">
            <g id="g96" transform="translate(8.023457, 8.541612) scale(1, -1) translate(-8.023457, -8.541612) translate(0.690124, 1.874945)">
                <polygon id="path98" points="0 0 1.85466662 12.9506663 2.06533328 12.9506663 7.32933315 2.32399994 12.5439997 12.9506663 12.7506663 12.9506663 14.6159996 0 13.3466663 0 12.0666664 9.2613331 7.48666648 0 7.15599982 0 2.52399994 9.33199977 1.25066664 0"></polygon>
            </g>
            <g id="g100" transform="translate(23.661457, 8.924545) scale(1, -1) translate(-23.661457, -8.924545) translate(19.661457, 2.257878)">
                <polygon id="path102" points="0 13.333333 7.42133315 13.333333 7.42133315 12.0666664 1.29466663 12.0666664 1.29466663 8.0079998 7.36933315 8.0079998 7.36933315 6.73999983 1.29466663 6.73999983 1.29466663 1.65066663 7.36933315 1.65066663 7.36933315 0.382666657 0 0.382666657"></polygon>
            </g>
            <g id="g104" transform="translate(37.865857, 8.541612) scale(1, -1) translate(-37.865857, -8.541612) translate(30.532523, 1.874945)">
                <polygon id="path106" points="0 0 1.85466662 12.9506663 2.06533328 12.9506663 7.32933315 2.32399994 12.5439997 12.9506663 12.7506663 12.9506663 14.6159996 0 13.3466663 0 12.0666664 9.2613331 7.48666648 0 7.15599982 0 2.52399994 9.33199977 1.25066664 0"></polygon>
            </g>
            <g id="g108" transform="translate(53.463590, 8.308545) scale(1, -1) translate(-53.463590, -8.308545) translate(49.463590, 0.975212)">
                <path d="M1.3333333,6.6666665 L1.3333333,1.70133329 L2.93866659,1.70133329 C3.88533324,1.70133329 4.57999989,1.79466662 5.01999987,1.97866662 C5.4613332,2.16399995 5.81466652,2.45333327 6.08266651,2.8466666 C6.35066651,3.23999992 6.48399984,3.66533324 6.48399984,4.12266656 C6.48399984,4.69733322 6.29599984,5.19866654 5.91866652,5.62799986 C5.54399986,6.05599985 5.02666654,6.35066651 4.36799989,6.50933317 C3.92666657,6.6146665 3.15999992,6.6666665 2.06533328,6.6666665 L1.3333333,6.6666665 Z M1.3333333,12.117333 L1.3333333,7.97066647 L2.07466661,7.97066647 C2.97333326,7.97066647 3.63733324,8.05333313 4.0599999,8.22133313 C4.48266655,8.38799979 4.81866655,8.65199978 5.06533321,9.01333311 C5.31199987,9.3733331 5.43599986,9.77466642 5.43599986,10.2146664 C5.43599986,10.8066664 5.2293332,11.2733331 4.81333321,11.6106664 C4.39999989,11.9479997 3.73999991,12.117333 2.83333326,12.117333 L1.3333333,12.117333 Z M0.0653333317,13.3839997 L2.6186666,13.3839997 C3.64533324,13.3839997 4.43466656,13.2626663 4.98666654,13.0199997 C5.53866653,12.7759997 5.97466652,12.401333 6.29466651,11.897333 C6.6146665,11.3919997 6.7746665,10.8319997 6.7746665,10.2146664 C6.7746665,9.63866643 6.6346665,9.11599977 6.35466651,8.64266645 C6.07333318,8.17066646 5.66133319,7.78799981 5.11866654,7.49466648 C5.79199986,7.26533315 6.30933318,6.99733316 6.67199983,6.68933317 C7.03466649,6.38133317 7.31733315,6.00799985 7.51999981,5.57066653 C7.72133314,5.13466654 7.82133314,4.65999988 7.82133314,4.1479999 C7.82133314,3.11066659 7.44133315,2.23066661 6.6826665,1.51199996 C5.92133319,0.793333313 4.90266654,0.433333323 3.62266658,0.433333323 L0.0653333317,0.433333323 L0.0653333317,13.3839997 Z" id="path110"></path>
            </g>
            <g id="g112" transform="translate(65.660123, 8.924545) scale(1, -1) translate(-65.660123, -8.924545) translate(61.660123, 2.257878)">
                <polygon id="path114" points="0 13.333333 7.42133315 13.333333 7.42133315 12.0666664 1.29466663 12.0666664 1.29466663 8.0079998 7.36933315 8.0079998 7.36933315 6.73999983 1.29466663 6.73999983 1.29466663 1.65066663 7.36933315 1.65066663 7.36933315 0.382666657 0 0.382666657"></polygon>
            </g>
            <g id="g116" transform="translate(77.819056, 8.858145) scale(1, -1) translate(-77.819056, -8.858145) translate(73.152389, 2.191478)">
                <path d="M1.3333333,11.9999997 L1.3333333,7.59733314 L3.56533324,7.57999981 C4.42933322,7.57999981 5.06933321,7.66133314 5.48266653,7.82666647 C5.89733319,7.99066647 6.22133318,8.25333313 6.45333317,8.61466645 C6.68533317,8.97466644 6.80133316,9.37866643 6.80133316,9.82533309 C6.80133316,10.2586664 6.68399983,10.6533331 6.44933317,11.0093331 C6.21333318,11.3639997 5.90533319,11.6186664 5.52266653,11.7706664 C5.13999987,11.9226664 4.50533322,11.9999997 3.61866658,11.9999997 L1.3333333,11.9999997 Z M0.0386666657,13.2666663 L2.61999993,13.2666663 C4.05733323,13.2666663 5.03066654,13.2079997 5.54133319,13.0906663 C6.31066651,12.9159997 6.93599983,12.537333 7.41733315,11.9586664 C7.89866647,11.3786664 8.13866646,10.6666664 8.13866646,9.81999975 C8.13866646,9.11599977 7.97333313,8.49466645 7.64133314,7.96133313 C7.30933315,7.42533315 6.83599983,7.02266649 6.21999984,6.74933316 C5.60399986,6.4746665 4.75199988,6.33599984 3.66666658,6.32933318 L8.32399979,0.315999992 L6.7226665,0.315999992 L2.06533328,6.32933318 L1.3333333,6.32933318 L1.3333333,0.315999992 L0.0386666657,0.315999992 L0.0386666657,13.2666663 Z" id="path118"></path>
            </g>
        </g>
        <path d="M21.1027917,115.690145 L169.358788,115.690145" id="path122" stroke="#21205F" stroke-width="1.00133329" transform="translate(95.230790, 116.356812) scale(1, -1) translate(-95.230790, -116.356812) "></path>
        <g id="Jewelers-Of-America" transform="translate(0.000000, 88.000000)" fill="#666767">
            <g id="g28" transform="translate(5.417992, 10.007879) scale(1, -1) translate(-5.417992, -10.007879) translate(0.084659, 0.007879)">
                <path d="M7.9999998,18.6666662 C7.44933315,18.6666662 7.38133315,18.6666662 7.38133315,18.3573329 C7.36133315,17.5359996 7.18266649,7.12799982 7.07333316,4.29466656 C6.93999983,1.5053333 4.95066654,0.247999994 3.90933324,0.0679999983 C2.38133327,-0.194666662 1.73999996,0.377333324 1.31866663,0.773333314 C1.18666664,0.885333311 0.875999978,1.2133333 0.918666644,1.59333329 C0.987999975,2.12533328 2.22666661,3.58266658 2.29599994,2.47333327 C2.33866661,1.76533329 2.80399993,0.923999977 3.55466658,0.923999977 C4.88399988,0.947999976 5.34799987,2.27866661 5.4613332,4.18266656 C5.54666653,6.08533318 5.5253332,17.2293329 5.4613332,18.2866662 C5.50399986,18.5786662 5.3053332,18.6013329 5.03733321,18.6253329 C4.52933322,18.6906662 3.82133324,18.6906662 3.33466658,18.7319995 C3.13466659,18.7319995 2.77999993,19.5959995 3.84266657,19.4839995 C5.01733321,19.3986662 6.5866665,19.3093329 9.2213331,19.4639995 C9.63866643,19.4839995 9.57333309,18.8253329 9.28799977,18.7106662 C9.04266644,18.6253329 8.51333312,18.6666662 7.9999998,18.6666662" id="path30"></path>
            </g>
            <g id="g32" transform="translate(14.878925, 11.070279) scale(1, -1) translate(-14.878925, -11.070279) translate(10.212259, 5.070279)">
                <path d="M7.9999998,1.3333333 C7.9119998,0.825333313 7.44799981,1.02399997 7.09733316,1.00266664 C6.66133317,0.958666643 2.73733326,1.20266664 0.435999989,0.978666642 C-0.0066666665,0.934666643 -0.0959999976,1.73199996 0.345333325,1.79733329 C0.698666649,1.84133329 1.03199997,1.59866663 1.03199997,2.17199995 C1.03199997,2.85999993 0.966666642,10.4186664 0.966666642,10.9733331 C0.966666642,11.1719997 0.611999985,11.1479997 0.345333325,11.1719997 C0.0586666652,11.1933331 -0.0066666665,11.9346664 0.457333322,11.893333 C1.51999996,11.825333 5.78133319,11.7786664 6.98933316,11.9119997 C7.18666649,11.9346664 7.64666648,12.0026664 7.84533314,11.9786664 C8.08933313,11.9786664 8.08933313,11.7786664 8.06666646,11.6279997 C8.02133313,11.2973331 7.86533314,10.5959997 7.86533314,9.75733309 C7.86533314,9.13999977 7.03199982,9.16399977 7.05599982,9.75733309 C7.07599982,10.1773331 7.03199982,10.3066664 7.03199982,10.5493331 C7.01199982,10.7706664 6.90399983,10.8599997 6.35199984,10.9266664 C5.80266652,10.9946664 3.57599991,11.1479997 2.5386666,10.9733331 C2.5386666,10.7079997 2.5826666,9.75733309 2.51733327,6.93466649 C3.50799991,6.95599983 5.05333321,6.95599983 6.33199984,7.04133316 C6.6186665,7.06799982 6.72799983,7.22133315 6.74933316,7.63999981 C6.74933316,8.1719998 7.51466648,8.1039998 7.46933315,7.63999981 C7.42533315,7.33066648 7.44799981,6.7786665 7.46933315,6.27066651 C7.49066648,5.75999986 7.53333315,5.27066653 7.53333315,5.11466654 C7.53333315,4.85466655 6.7706665,4.67999988 6.74933316,5.07599987 C6.70533317,5.56266653 6.66133317,6.04666652 6.04266652,6.07066651 C6.04266652,6.07066651 4.89866654,6.13866651 2.51733327,6.13866651 C2.5386666,5.82799985 2.5386666,4.76799988 2.5826666,1.97333328 C3.39999991,1.90666662 6.26533318,1.92933329 6.7946665,2.10933328 C7.22933315,2.26533328 7.46933315,2.6146666 7.75599981,3.39333325 C7.88933314,3.96666657 8.68399978,3.72399991 8.55333312,3.28133325 C8.39733312,2.6426666 8.11066646,1.95333328 7.9999998,1.3333333" id="path34"></path>
            </g>
            <g id="g36" transform="translate(27.085992, 10.815079) scale(1, -1) translate(-27.085992, -10.815079) translate(18.419325, 4.148413)">
                <path d="M15.9999996,10.6666664 C14.8746663,7.81733314 13.077333,3.03866659 12.609333,1.79999995 C12.4079997,1.26266664 11.741333,0.931999977 11.605333,1.73199996 C11.5626664,2.06533328 10.3119997,5.14266654 9.05066644,7.9479998 C7.8999998,5.34399987 6.66399983,2.5106666 6.37333317,1.52799996 C6.21733318,0.999999975 5.55599986,1.3093333 5.5133332,1.51066663 C5.1813332,3.03866659 2.94799993,7.88266647 1.55733329,10.8226664 C1.3813333,11.2213331 1.1813333,11.6399997 1.02799997,11.661333 C0.497333321,11.7079997 0.51733332,12.4586664 1.00533331,12.4146664 C2.46533327,12.305333 3.41199991,12.393333 3.63599991,12.4146664 C4.0319999,12.4586664 4.05333323,11.6879997 3.72133324,11.6879997 C3.56933324,11.6879997 3.39199992,11.7079997 3.23599992,11.661333 C3.05999992,11.6399997 3.01733326,11.617333 3.05999992,11.5106664 C3.19333325,11.0239997 3.79199991,9.65066643 4.49599989,8.0599998 C5.1573332,6.58133317 5.86533319,4.91866654 6.35333317,3.77066657 C6.7066665,4.63599988 7.67733314,6.86666649 8.58666645,8.92399978 C8.16666646,9.84933309 7.8119998,10.6253331 7.45866648,11.2653331 C7.14799982,11.8146664 6.30666651,11.4426664 6.30666651,12.0386664 C6.30666651,12.2159997 6.41599984,12.4399997 6.66399983,12.4146664 C8.1239998,12.281333 9.78266642,12.393333 10.0253331,12.4146664 C10.4026664,12.4586664 10.4026664,11.661333 10.0719997,11.661333 C9.98133308,11.661333 9.67333309,11.7079997 9.42799976,11.661333 C9.2293331,11.661333 9.07466644,11.661333 9.11733311,11.5106664 C9.2493331,11.0239997 9.82666642,9.65066643 10.5373331,8.0599998 C11.2026664,6.58133317 11.9626664,4.91866654 12.4306664,3.77066657 C12.8986663,4.85999988 14.1706663,7.9719998 15.1386663,11.1746664 C15.2719996,11.5706664 15.2946663,11.7266664 14.521333,11.7079997 C13.9879997,11.7079997 14.0119996,12.5026664 14.589333,12.4146664 C15.4506663,12.305333 16.2453329,12.369333 16.8413329,12.4146664 C17.3693329,12.4786664 17.3693329,11.7946664 16.9733329,11.7266664 C16.6853329,11.6879997 16.2453329,11.2653331 15.9999996,10.6666664" id="path38"></path>
            </g>
            <g id="g40" transform="translate(41.083325, 11.070279) scale(1, -1) translate(-41.083325, -11.070279) translate(36.416658, 5.070279)">
                <path d="M7.9999998,1.3333333 C7.91066647,0.825333313 7.44533315,1.02399997 7.09866649,1.00266664 C6.66133317,0.958666643 2.73733326,1.20266664 0.431999989,0.978666642 C-0.0093333331,0.934666643 -0.0973333309,1.73199996 0.346666658,1.79733329 C0.698666649,1.84133329 1.03066664,1.59866663 1.03066664,2.17199995 C1.03066664,2.85999993 0.965333309,10.4186664 0.965333309,10.9733331 C0.965333309,11.1719997 0.610666651,11.1479997 0.346666658,11.1719997 C0.0573333319,11.1933331 -0.0093333331,11.9346664 0.455999989,11.893333 C1.5213333,11.825333 5.77733319,11.7786664 6.98799983,11.9119997 C7.18666649,11.9346664 7.64399981,12.0026664 7.8439998,11.9786664 C8.08533313,11.9786664 8.08533313,11.7786664 8.06666646,11.6279997 C8.02266647,11.2973331 7.86666647,10.5959997 7.86666647,9.75733309 C7.86666647,9.13999977 7.03333316,9.16399977 7.05333316,9.75733309 C7.07733316,10.1773331 7.03333316,10.3066664 7.03333316,10.5493331 C7.01066649,10.7706664 6.90133316,10.8599997 6.35333317,10.9266664 C5.80133319,10.9946664 3.57466658,11.1479997 2.53733327,10.9733331 C2.53733327,10.7079997 2.5826666,9.75733309 2.51599994,6.93466649 C3.50799991,6.95599983 5.05199987,6.95599983 6.32933318,7.04133316 C6.61733317,7.06799982 6.7266665,7.22133315 6.74933316,7.63999981 C6.74933316,8.1719998 7.51199981,8.1039998 7.46933315,7.63999981 C7.42399981,7.33066648 7.44533315,6.7786665 7.46933315,6.27066651 C7.48933315,5.75999986 7.53466648,5.27066653 7.53466648,5.11466654 C7.53466648,4.85466655 6.77199983,4.67999988 6.74933316,5.07599987 C6.70533317,5.56266653 6.66133317,6.04666652 6.04399985,6.07066651 C6.04399985,6.07066651 4.89733321,6.13866651 2.51599994,6.13866651 C2.53733327,5.82799985 2.53733327,4.76799988 2.5826666,1.97333328 C3.39866658,1.90666662 6.26533318,1.92933329 6.79333316,2.10933328 C7.22933315,2.26533328 7.46933315,2.6146666 7.75466647,3.39333325 C7.88666647,3.96666657 8.68533312,3.72399991 8.55199979,3.28133325 C8.39999979,2.6426666 8.10933313,1.95333328 7.9999998,1.3333333" id="path42"></path>
            </g>
            <g id="g44" transform="translate(50.569058, 11.080679) scale(1, -1) translate(-50.569058, -11.080679) translate(45.902391, 5.080679)">
                <path d="M7.9999998,1.3333333 C7.88666647,0.955999976 7.59999981,1.00266664 7.28933315,1.00266664 C6.89199983,1.00266664 2.93066659,1.19999997 0.717333315,0.981333309 C0.251999994,1.11199997 0.365333324,1.91466662 0.826666646,1.86666662 C0.959999976,1.86666662 1.13866664,1.82533329 1.2693333,1.84399995 C1.35999997,1.86666662 1.4493333,1.93199995 1.4693333,2.13333328 C1.51466663,2.81733326 1.51466663,10.5213331 1.4693333,10.9186664 C1.4493333,11.0959997 1.3813333,11.1879997 0.78399998,11.1426664 C0.229333328,11.1226664 0.118666664,12.0466664 0.759999981,11.9426664 C1.91199995,11.7426664 3.08399992,11.8066664 4.23599989,11.9426664 C4.83466655,12.005333 4.76533321,11.1879997 4.30266656,11.1426664 C4.0599999,11.1226664 3.23866659,11.1426664 3.08399992,10.9893331 C2.95199993,10.8519997 3.06133326,2.40133327 3.08399992,1.97866662 C3.08399992,1.89066662 3.9479999,1.99999995 4.83466655,2.06533328 C5.78533319,2.13333328 6.7586665,2.24533328 6.91466649,2.28666661 C7.35866648,2.44266661 7.57733314,3.02133326 7.73333314,3.39599992 C7.93333313,3.81733324 8.72933312,3.63999991 8.52933312,3.10399992 C8.37466646,2.70799993 8.0639998,1.57599996 7.9999998,1.3333333" id="path46"></path>
            </g>
            <g id="g48" transform="translate(60.029991, 11.070279) scale(1, -1) translate(-60.029991, -11.070279) translate(55.363324, 5.070279)">
                <path d="M7.9999998,1.3333333 C7.91066647,0.825333313 7.44933315,1.02399997 7.09866649,1.00266664 C6.6626665,0.958666643 2.73733326,1.20266664 0.434666656,0.978666642 C-0.0079999998,0.934666643 -0.0946666643,1.73199996 0.346666658,1.79733329 C0.699999982,1.84133329 1.03066664,1.59866663 1.03066664,2.17199995 C1.03066664,2.85999993 0.965333309,10.4186664 0.965333309,10.9733331 C0.965333309,11.1719997 0.610666651,11.1479997 0.346666658,11.1719997 C0.0573333319,11.1933331 -0.0079999998,11.9346664 0.455999989,11.893333 C1.51866663,11.825333 5.77999986,11.7786664 6.99066649,11.9119997 C7.18666649,11.9346664 7.64399981,12.0026664 7.8439998,11.9786664 C8.08533313,11.9786664 8.08533313,11.7786664 8.06666647,11.6279997 C8.02266647,11.2973331 7.86666647,10.5959997 7.86666647,9.75733309 C7.86666647,9.13999977 7.03333316,9.16399977 7.05599982,9.75733309 C7.07733316,10.1773331 7.03333316,10.3066664 7.03333316,10.5493331 C7.01066649,10.7706664 6.90133316,10.8599997 6.35333317,10.9266664 C5.80133319,10.9946664 3.57466658,11.1479997 2.53733327,10.9733331 C2.53733327,10.7079997 2.5826666,9.75733309 2.5186666,6.93466649 C3.50799991,6.95599983 5.05333321,6.95599983 6.32933318,7.04133316 C6.61733317,7.06799982 6.72933317,7.22133315 6.74933316,7.63999981 C6.74933316,8.1719998 7.51199981,8.1039998 7.46933315,7.63999981 C7.42533315,7.33066648 7.44933315,6.7786665 7.46933315,6.27066651 C7.49199981,5.75999986 7.53466648,5.27066653 7.53466648,5.11466654 C7.53466648,4.85466655 6.77199983,4.67999988 6.74933316,5.07599987 C6.70533317,5.56266653 6.6626665,6.04666652 6.04399985,6.07066651 C6.04399985,6.07066651 4.89733321,6.13866651 2.5186666,6.13866651 C2.53733327,5.82799985 2.53733327,4.76799988 2.5826666,1.97333328 C3.39866658,1.90666662 6.26533318,1.92933329 6.79199983,2.10933328 C7.22933315,2.26533328 7.46933315,2.6146666 7.75599981,3.39333325 C7.89066647,3.96666657 8.68533312,3.72399991 8.55199979,3.28133325 C8.39733312,2.6426666 8.11066646,1.95333328 7.9999998,1.3333333" id="path50"></path>
            </g>
            <g id="g52" transform="translate(70.632790, 11.234413) scale(1, -1) translate(-70.632790, -11.234413) translate(65.299457, 5.234413)">
                <path d="M9.3333331,1.3333333 C9.41866643,1.50266663 9.44266643,1.74799996 9.1533331,1.86133329 C7.73733314,2.39066661 6.89599983,3.27066658 6.34266651,4.13866656 C5.94533318,4.77866655 5.67733319,5.46666653 5.43466653,6.19733318 C7.13866649,6.92666649 7.33866648,8.32266646 7.36133315,8.91466644 C7.40533315,11.6799997 4.43466656,12.033333 3.47866658,11.9426664 C2.34933327,11.8359997 0.863999978,11.9426664 0.597333318,11.969333 C0.199999995,11.989333 0.153333329,11.2426664 0.553333319,11.2426664 C0.642666651,11.2159997 0.709333316,11.2159997 0.797333313,11.2159997 C0.974666642,11.1946664 1.1733333,11.2159997 1.1733333,10.9733331 C1.19466664,10.5759997 1.43866663,5.2213332 1.2613333,2.30266661 C1.24266664,1.83599995 0.775999981,1.86133329 0.510666654,1.88266662 C0.0226666661,1.90399995 0.0679999983,1.07066664 0.577333319,1.11733331 C0.951999976,1.1613333 2.41599994,1.2893333 3.70266657,1.13866664 C4.21066656,1.09333331 4.30266656,1.86133329 3.74666657,1.92666662 C3.54666658,1.95066662 3.30266658,1.92666662 3.12399992,1.95066662 C3.01466659,1.95066662 2.92399993,1.90399995 2.92399993,1.95066662 C2.88133326,2.12266661 2.83599993,2.8546666 2.8146666,3.65066658 C2.79199993,4.37999989 2.76933326,5.1533332 2.76933326,5.59599986 C3.21333325,5.59599986 3.67999991,5.66399986 3.8599999,5.68799986 C4.58799989,4.0519999 5.52266653,3.00799992 6.45333317,2.32266661 C7.18399982,1.76799996 7.9599998,1.39866663 8.82133311,1.07066664 C9.04399977,1.00533331 9.24399977,1.18266664 9.3333331,1.3333333 M5.83599985,8.82799978 C5.83599985,7.38799982 4.65733322,6.34933317 3.36933325,6.34933317 C3.36933325,6.34933317 3.08133326,6.33066651 2.72399993,6.34933317 C2.7026666,7.05999982 2.68133327,10.4666664 2.65733327,11.1773331 C2.99066659,11.1946664 3.43466658,11.1946664 3.65733324,11.1946664 C4.34533322,11.2159997 5.83599985,10.5959997 5.83599985,8.82799978" id="path54"></path>
            </g>
            <g id="g56" transform="translate(79.772124, 10.942679) scale(1, -1) translate(-79.772124, -10.942679) translate(75.105457, 4.276013)">
                <path d="M3.9999999,1.3333333 C3.29199992,1.3333333 2.55999994,1.3773333 1.89866662,1.57066663 C1.83466662,1.57066663 1.78933329,1.61733329 1.72533329,1.61733329 C1.59333329,1.61733329 1.59333329,1.1533333 1.1533333,1.1533333 C0.889333311,1.1533333 0.822666646,1.3773333 0.779999981,1.59333329 C0.646666651,2.40399994 0.601333318,3.15866659 0.337333325,3.95866657 C0.247999994,4.26799989 0.534666653,4.44799989 0.801333313,4.44799989 C1.2653333,4.44799989 1.2413333,3.8439999 1.43866663,3.51066658 C1.98799995,2.5786666 3.02666659,2.22399994 4.06666657,2.22399994 C5.24266654,2.22399994 6.83733316,2.7786666 6.83733316,4.1999999 C6.83733316,6.66399983 0.955999976,6.30666651 0.955999976,9.3093331 C0.955999976,11.4346664 2.71599993,12.5279997 4.66533322,12.5279997 C5.19866654,12.5279997 5.75333319,12.5079997 6.28399984,12.4186664 C6.5066665,12.3959997 6.7946665,12.2839997 7.01733316,12.2839997 C7.23599982,12.2839997 7.10266649,12.661333 7.45999981,12.661333 C7.68266647,12.661333 7.88133314,12.461333 7.88133314,12.237333 C7.88133314,11.7679997 7.72533314,11.3026664 7.72533314,10.8119997 C7.72533314,10.4373331 7.9479998,9.79199976 7.36933315,9.79199976 C6.7946665,9.79199976 6.99333316,10.5466664 6.7946665,10.9479997 C6.44133317,11.5906664 5.57733319,11.7679997 4.91066654,11.7679997 C3.77866657,11.7679997 2.36133327,11.1906664 2.36133327,9.85999975 C2.36133327,7.51066648 8.30533313,8.01866647 8.30533313,4.73199988 C8.30533313,2.49199994 5.97333318,1.3333333 3.9999999,1.3333333" id="path58"></path>
            </g>
            <g id="g60" transform="translate(97.440123, 10.781213) scale(1, -1) translate(-97.440123, -10.781213) translate(91.440123, 4.114546)">
                <path d="M11.9999997,6.6666665 C11.9999997,9.82533309 9.34399977,12.297333 6.22533318,12.297333 C3.08266659,12.297333 0.471999988,9.82533309 0.471999988,6.6666665 C0.471999988,3.50266658 3.08266659,1.02799997 6.22533318,1.02799997 C9.34399977,1.02799997 11.9999997,3.50266658 11.9999997,6.6666665 M10.3626664,6.59599984 C10.3626664,4.36666656 9.03333311,1.99999995 6.55733317,1.99999995 C3.81466657,1.99999995 1.99866662,4.67466655 1.99866662,7.21599982 C1.99866662,9.53866643 3.68133324,11.4639997 6.04933318,11.4639997 C8.54933312,11.4639997 10.3626664,8.94266644 10.3626664,6.59599984" id="path62"></path>
            </g>
            <g id="g64" transform="translate(108.692656, 11.065079) scale(1, -1) translate(-108.692656, -11.065079) translate(104.025990, 5.065079)">
                <path d="M7.9999998,9.3333331 C7.77599981,9.3333331 7.57733314,9.46666643 7.55733314,9.75466642 C7.53333315,10.0439997 7.37733315,10.3573331 7.26799982,10.6453331 C7.15866649,10.8439997 6.89199983,10.9346664 6.36133317,10.9999997 C5.80533319,11.0653331 3.52399991,11.1999997 3.19066659,11.0213331 C3.19066659,10.8226664 3.21333325,9.91199975 3.23599992,6.73733316 C4.18933323,6.78133316 5.3173332,6.78133316 6.6026665,6.86933316 C6.91599983,6.89066649 7.06799982,7.04933316 7.09066649,7.42399981 C7.09066649,7.95866647 7.8439998,7.84933314 7.82133314,7.47199981 C7.75199981,6.85199983 7.75199981,5.19466654 7.75199981,4.88533321 C7.75199981,4.54933322 7.02533316,4.50799989 6.97999983,4.95066654 C6.97999983,5.2133332 6.95866649,5.4613332 6.84799983,5.70266652 C6.8026665,5.81466652 6.66933317,5.95066652 6.31733318,5.95066652 C6.31733318,5.95066652 5.18266654,6.01333318 3.23599992,6.01333318 C3.23599992,5.70266652 3.27999992,4.61999988 3.32533325,1.89066662 C3.45733325,1.49199996 4.74266655,2.13599995 4.71999988,1.3613333 C4.71999988,1.16399997 4.56399989,0.961333309 4.43066656,0.961333309 C3.63333324,1.00533331 2.21599994,1.11999997 1.11066664,1.00533331 C0.689333316,0.961333309 0.597333318,1.78399996 1.06666664,1.75733329 C1.4413333,1.69333329 1.57466663,1.78399996 1.63999996,1.98133328 C1.74933329,2.35733327 1.70666662,3.02399992 1.72933329,3.42133325 C1.84133329,5.57066653 1.70666662,10.0706664 1.68399996,10.6453331 C1.68399996,11.1119997 1.53066663,11.2213331 1.08666664,11.2213331 C0.577333319,11.1999997 0.577333319,11.929333 1.06666664,11.8879997 C2.10399995,11.8199997 4.71999988,11.841333 6.91599983,11.8879997 C7.29199982,11.8879997 7.59999981,11.973333 7.79999981,11.973333 C7.9999998,11.997333 8.21866646,11.953333 8.1759998,11.6746664 C8.13333313,11.349333 8.1759998,10.5986664 8.33199979,9.80266642 C8.39733312,9.5133331 8.21866646,9.3573331 7.9999998,9.3333331" id="path66"></path>
            </g>
            <g id="g68" transform="translate(126.283856, 8.614546) scale(1, -1) translate(-126.283856, -8.614546) translate(118.950523, 0.614546)">
                <path d="M13.333333,1.3333333 C13.0466663,1.30666663 12.4479997,1.4013333 12.2719997,1.86133329 C11.1026664,4.83066655 7.87333314,13.393333 7.60933314,14.4586663 C7.52266648,14.8599996 7.45599981,15.2106663 7.36533315,15.2106663 C7.07999982,15.2106663 6.90399983,15.0959996 6.7906665,15.0786663 C6.17199985,12.3119997 3.91466657,6.8466665 2.09866661,2.08533328 C1.96666662,1.72933329 1.41066663,1.28666663 1.05733331,1.17466664 C0.858666645,1.10933331 0.990666642,0.575999986 1.1893333,0.622666651 C2.25066661,0.843999979 3.33733325,0.687999983 3.91466657,0.603999985 C4.1799999,0.554666653 4.1799999,1.30666663 3.9999999,1.28666663 C3.24933325,1.28666663 2.91599993,1.4013333 3.00666659,1.79466662 C3.00666659,1.79466662 3.07066659,2.06266662 4.29066656,5.51599986 C5.90666652,5.53866653 6.56799984,5.33866653 9.02799977,5.53866653 C10.0839997,2.41733327 10.1973331,2.15066661 10.1973331,2.15066661 C10.2893331,1.86133329 10.4413331,1.48666663 10.2173331,1.4013333 C10.0413331,1.3333333 9.91199975,1.35466663 9.60133309,1.3333333 C9.22399977,1.28666663 9.44666643,0.510666654 9.79999975,0.575999986 C10.8813331,0.802666647 12.4719997,0.707999982 13.1786663,0.575999986 C13.5959997,0.489333321 13.685333,1.35466663 13.333333,1.3333333 L13.333333,1.3333333 Z M8.80533311,6.33333317 C8.24933313,6.33333317 5.63866653,6.42133317 4.53333322,6.30933318 L6.69999983,12.3119997 L8.80533311,6.33333317 Z" id="path70"></path>
            </g>
            <g id="g72" transform="translate(139.669322, 10.718813) scale(1, -1) translate(-139.669322, -10.718813) translate(132.335989, 4.052146)">
                <path d="M13.333333,1.3333333 C13.001333,1.3333333 10.7826664,1.35466663 10.2293331,1.31199997 C9.75999976,1.26799997 9.75999976,2.13066661 10.2293331,2.19466661 C10.4719997,2.21866661 10.8493331,2.17199995 11.0706664,2.23733328 C11.0933331,2.7506666 11.2933331,6.18266651 11.2279997,10.0546664 C8.10133313,3.16933325 7.61333314,1.59866663 7.59066648,1.51066663 C7.52533315,1.1533333 6.90533316,1.19999997 6.79599983,1.5333333 C6.68399983,2.19466661 5.70933319,4.27599989 4.71066655,6.29466651 C3.9159999,7.88266647 3.13733325,9.41466643 2.7626666,10.1666664 C2.8506666,2.5906666 2.89333326,2.30533328 2.89333326,2.30533328 C2.89333326,2.13066661 3.62533324,2.19466661 3.75866657,2.19466661 C4.24666656,2.17199995 4.1999999,1.24266664 3.73733324,1.31199997 C3.31333325,1.35466663 2.14799995,1.46666663 1.39866663,1.3333333 C0.93333331,1.24266664 0.890666644,2.13066661 1.30799997,2.15066661 C1.55599996,2.17199995 1.86266662,2.15066661 1.88399995,2.48133327 C1.90799995,2.92666659 1.99333328,10.8959997 1.99333328,11.3799997 C1.99333328,11.5159997 1.53199996,11.5159997 1.44266663,11.5386664 C1.11199997,11.6039997 1.11199997,12.357333 1.64133329,12.265333 C2.19333328,12.1799997 4.13466656,12.1999997 4.62399988,12.265333 C5.2653332,12.357333 5.10799987,11.4946664 4.69066655,11.4946664 C4.37866656,11.4946664 4.02266657,11.5386664 3.73733324,11.4719997 C3.60133324,11.4479997 3.75866657,11.2506664 3.77999991,11.2266664 C3.77999991,11.2266664 5.83999985,7.57599981 7.54666648,3.8119999 C10.8959997,11.2266664 10.8959997,11.3799997 10.8959997,11.3799997 C10.8959997,11.4719997 10.2066664,11.4719997 10.0746664,11.4719997 C9.65066643,11.5159997 9.69599976,12.3119997 10.2066664,12.265333 C10.7826664,12.1999997 12.7146663,12.1999997 13.0906663,12.265333 C13.6426663,12.333333 13.733333,11.5386664 13.1999997,11.4479997 L12.7146663,11.3799997 C12.7346663,2.5266666 12.8026663,2.35199994 12.8026663,2.35199994 C12.9346663,2.06533328 13.157333,2.17199995 13.421333,2.15066661 C13.6426663,2.13066661 13.709333,1.88533329 13.709333,1.73199996 C13.6906663,1.55199996 13.5999997,1.3333333 13.333333,1.3333333" id="path74"></path>
            </g>
            <g id="g76" transform="translate(152.321588, 11.070279) scale(1, -1) translate(-152.321588, -11.070279) translate(147.654922, 5.070279)">
                <path d="M7.9999998,1.3333333 C7.91466647,0.825333313 7.44933315,1.02399997 7.09866649,1.00266664 C6.6626665,0.958666643 2.73733326,1.20266664 0.435999989,0.978666642 C-0.0093333331,0.934666643 -0.0946666643,1.73199996 0.346666658,1.79733329 C0.702666649,1.84133329 1.03066664,1.59866663 1.03066664,2.17199995 C1.03066664,2.85999993 0.969333309,10.4186664 0.969333309,10.9733331 C0.969333309,11.1719997 0.610666651,11.1479997 0.346666658,11.1719997 C0.0586666652,11.1933331 -0.0093333331,11.9346664 0.458666655,11.893333 C1.5213333,11.825333 5.77733319,11.7786664 6.99066649,11.9119997 C7.18666649,11.9346664 7.64399981,12.0026664 7.8479998,11.9786664 C8.0879998,11.9786664 8.0879998,11.7786664 8.06666647,11.6279997 C8.0239998,11.2973331 7.86666647,10.5959997 7.86666647,9.75733309 C7.86666647,9.13999977 7.03599982,9.16399977 7.05599982,9.75733309 C7.07733316,10.1773331 7.03599982,10.3066664 7.03599982,10.5493331 C7.01066649,10.7706664 6.90533316,10.8599997 6.35333317,10.9266664 C5.80133319,10.9946664 3.57599991,11.1479997 2.53999994,10.9733331 C2.53999994,10.7079997 2.5826666,9.75733309 2.5186666,6.93466649 C3.50933325,6.95599983 5.05066654,6.95599983 6.33199984,7.04133316 C6.61733317,7.06799982 6.72933317,7.22133315 6.74933316,7.63999981 C6.74933316,8.1719998 7.51199981,8.1039998 7.46933315,7.63999981 C7.42533315,7.33066648 7.44933315,6.7786665 7.46933315,6.27066651 C7.49199981,5.75999986 7.53866648,5.27066653 7.53866648,5.11466654 C7.53866648,4.85466655 6.77199983,4.67999988 6.74933316,5.07599987 C6.70533317,5.56266653 6.6626665,6.04666652 6.04799985,6.07066651 C6.04799985,6.07066651 4.89999988,6.13866651 2.5186666,6.13866651 C2.53999994,5.82799985 2.53999994,4.76799988 2.5826666,1.97333328 C3.40133325,1.90666662 6.26533318,1.92933329 6.79333316,2.10933328 C7.22933315,2.26533328 7.46933315,2.6146666 7.75599981,3.39333325 C7.89066647,3.96666657 8.68533312,3.72399991 8.55199979,3.28133325 C8.39999979,2.6426666 8.11466646,1.95333328 7.9999998,1.3333333" id="path78"></path>
            </g>
            <g id="g80" transform="translate(162.924521, 11.234413) scale(1, -1) translate(-162.924521, -11.234413) translate(157.591188, 5.234413)">
                <path d="M9.3333331,1.3333333 C9.41866643,1.50266663 9.44266643,1.74799996 9.1533331,1.86133329 C7.73733314,2.39066661 6.89866649,3.27066658 6.34399984,4.13866656 C5.94533318,4.77866655 5.67999986,5.46666653 5.43199986,6.19733318 C7.14133315,6.92666649 7.34266648,8.32266646 7.36133315,8.91466644 C7.40666648,11.6799997 4.43599989,12.033333 3.47999991,11.9426664 C2.35333327,11.8359997 0.863999978,11.9426664 0.597333318,11.969333 C0.199999995,11.989333 0.155999996,11.2426664 0.553333319,11.2426664 C0.642666651,11.2159997 0.709333316,11.2159997 0.798666647,11.2159997 C0.974666642,11.1946664 1.1773333,11.2159997 1.1773333,10.9733331 C1.19866664,10.5759997 1.4413333,5.2213332 1.26266664,2.30266661 C1.23999997,1.83599995 0.775999981,1.86133329 0.510666654,1.88266662 C0.0253333327,1.90399995 0.0679999983,1.07066664 0.577333319,1.11733331 C0.951999976,1.1613333 2.41599994,1.2893333 3.69999991,1.13866664 C4.21333323,1.09333331 4.30533323,1.86133329 3.74666657,1.92666662 C3.54666658,1.95066662 3.30399992,1.92666662 3.12399992,1.95066662 C3.01466659,1.95066662 2.92533326,1.90399995 2.92533326,1.95066662 C2.88133326,2.12266661 2.83599993,2.8546666 2.8146666,3.65066658 C2.79199993,4.37999989 2.76799993,5.1533332 2.76799993,5.59599986 C3.21333325,5.59599986 3.67999991,5.66399986 3.85866657,5.68799986 C4.59066655,4.0519999 5.52666653,3.00799992 6.45599984,2.32266661 C7.18533315,1.76799996 7.96133313,1.39866663 8.82533311,1.07066664 C9.04399977,1.00533331 9.24399977,1.18266664 9.3333331,1.3333333 M5.83599985,8.82799978 C5.83599985,7.38799982 4.65733322,6.34933317 3.36799992,6.34933317 C3.36799992,6.34933317 3.08133326,6.33066651 2.72933327,6.34933317 C2.70133327,7.05999982 2.6826666,10.4666664 2.6586666,11.1773331 C2.99066659,11.1946664 3.43733325,11.1946664 3.65733324,11.1946664 C4.34533322,11.2159997 5.83599985,10.5959997 5.83599985,8.82799978" id="path82"></path>
            </g>
            <g id="g84" transform="translate(169.565055, 10.770813) scale(1, -1) translate(-169.565055, -10.770813) translate(166.231721, 4.104146)">
                <path d="M5.3333332,1.3333333 C4.13733323,1.4213333 2.23466661,1.39866663 1.66133329,1.3333333 C1.08133331,1.26799997 1.04133331,2.12533328 1.59333329,2.12533328 C1.96933328,2.12533328 2.12533328,2.10399995 2.30133328,2.12533328 C2.41333327,2.12533328 2.5226666,2.30266661 2.5226666,2.6146666 C2.67733327,7.47333315 2.54533327,10.7346664 2.5226666,11.2679997 C2.5226666,11.4186664 2.43466661,11.4866664 2.05866662,11.5106664 C1.70266662,11.533333 1.66133329,11.533333 1.48266663,11.533333 C1.04133331,11.5786664 0.92933331,12.2706664 1.52666663,12.2239997 C1.96933328,12.205333 4.22399989,12.1586664 5.24399987,12.2919997 C5.64266653,12.357333 5.71333319,11.5786664 5.26666653,11.5546664 C4.98133321,11.533333 4.66933322,11.5786664 4.40266656,11.4866664 C4.20266656,11.445333 4.07466656,11.4186664 4.07466656,11.1119997 C4.07466656,10.7546664 4.09466656,2.87733326 4.15733323,2.49999994 C4.20266656,2.21599994 4.31466656,2.19333328 4.64533322,2.16933328 C4.98133321,2.14799995 5.1573332,2.16933328 5.3573332,2.16933328 C5.48799986,2.16933328 5.64266653,1.97199995 5.64266653,1.75199996 C5.66666653,1.53066663 5.55466653,1.31199997 5.3333332,1.3333333" id="path86"></path>
            </g>
            <g id="g88" transform="translate(177.769454, 10.273479) scale(1, -1) translate(-177.769454, -10.273479) translate(171.769455, 4.273479)">
                <path d="M10.6666664,7.9999998 C10.6666664,7.46666648 9.78266642,7.57866648 9.80533309,7.9319998 C9.91599975,10.0986664 8.23333313,10.2786664 6.88399983,10.3439997 C1.65866663,10.6306664 1.17199997,1.01333331 7.06266649,0.94533331 C8.85466645,0.92133331 9.45199976,1.54133329 9.76266642,2.27066661 C10.0479997,2.91466659 10.9586664,2.45066661 10.5586664,1.91599995 C10.3813331,1.69733329 10.2239997,1.16666664 10.1386664,0.879999978 C10.0053331,0.431999989 9.80533309,0.0813333313 9.67333309,0.101333331 C9.16399977,0.169333329 8.94266644,0.169333329 7.25999982,0.0546666653 C4.1159999,-0.142666663 1.12666664,2.02799995 1.12666664,5.49999986 C1.12666664,10.0133331 5.08933321,11.2213331 6.5946665,11.2653331 C7.98933313,11.3093331 9.13999977,11.0279997 9.62933309,10.8226664 C9.95999975,10.6973331 10.0253331,10.7839997 10.2466664,10.9786664 C10.5146664,11.1999997 11.1079997,11.1533331 10.9586664,10.6066664 C10.8466664,10.2106664 10.6906664,8.59599979 10.6666664,7.9999998" id="path90"></path>
            </g>
            <g id="g92" transform="translate(188.322921, 11.031213) scale(1, -1) translate(-188.322921, -11.031213) translate(182.322921, 5.031213)">
                <path d="M10.6666664,1.3333333 C10.7799997,2.02133328 9.91599975,1.53066663 9.69333309,2.06266662 C8.80666645,4.25199989 6.37333317,10.5413331 6.19466651,11.3146664 C6.15066651,11.429333 6.08399985,11.9346664 5.90933319,11.9346664 C5.70799986,11.9346664 5.57599986,11.8719997 5.37599987,11.825333 C5.1333332,10.7626664 4.60133322,9.2573331 3.9599999,7.55199981 C3.29466658,5.86933319 2.5426666,3.96666657 1.85733329,2.21866661 C1.76799996,2.02133328 1.3933333,1.71066662 1.1493333,1.61999996 C0.883999978,1.55466663 0.994666642,0.931999977 1.30266663,0.999999975 C2.07733328,1.15599997 2.87466659,1.04666664 3.29466658,0.978666642 C3.47199991,0.958666643 3.55999991,1.13333331 3.58266658,1.3333333 C3.62799991,1.73199996 3.38399992,1.71066662 3.38399992,1.71066662 C2.91866659,1.71066662 2.6986666,1.73199996 2.7426666,1.95066662 C2.7426666,1.95066662 2.78533326,2.15066661 3.67066657,4.60933322 C4.80133321,4.60933322 5.33066653,4.47599989 7.08266649,4.60933322 C7.74533314,2.63999993 7.8999998,2.23733328 7.92266647,2.19466661 C7.94266647,2.12799995 8.09866646,1.81733329 8.00933313,1.79733329 C7.8759998,1.75199996 7.72399981,1.73199996 7.56799981,1.73199996 C7.12533316,1.68533329 7.34799982,0.887999978 7.74533314,0.978666642 C8.56533312,1.13333331 9.73999976,1.09066664 10.2466664,0.978666642 C10.5106664,0.931999977 10.6426664,1.17999997 10.6666664,1.3333333 L10.6666664,1.3333333 Z M6.83733316,5.42666653 C6.25999984,5.42666653 4.75733321,5.47199986 3.9599999,5.42666653 L5.39999987,9.39066643 L6.83733316,5.42666653 Z" id="path94"></path>
            </g>
        </g>
        <polygon id="path14" fill="#21205F" transform="translate(88.922390, 55.170414) scale(1, -1) translate(-88.922390, -55.170414) " points="81.8423902 66.6370801 96.0023898 78.8050797 96.0023898 31.5357476 81.8423902 41.5077473"></polygon>
        <polygon id="path18" fill="#21205F" transform="translate(104.978790, 40.909347) scale(1, -1) translate(-104.978790, -40.909347) " points="97.7981231 68.4313467 112.159456 80.998013 112.159456 13.1833481 97.7981231 0.820681696"></polygon>
    </g>
</svg>