<?xml version="1.0" encoding="utf-8"?>
<svg width="269" height="59" viewBox="0 0 269 59" xmlns="http://www.w3.org/2000/svg">
  <defs>
    <radialGradient id="gradient-0" gradientUnits="userSpaceOnUse" cx="238.61" cy="18.5" r="15">
      <stop offset="0" style="stop-color: rgba(167, 173, 173, 1)"/>
      <stop offset="1" style="stop-color: rgba(115, 123, 123, 1)"/>
    </radialGradient>
    <radialGradient id="gradient-1" gradientUnits="userSpaceOnUse" cx="30.18" cy="18.5" r="15">
      <stop offset="0" style="stop-color: rgba(167, 173, 173, 1)"/>
      <stop offset="1" style="stop-color: rgba(115, 123, 123, 1)"/>
    </radialGradient>
  </defs>
  <title>YaleJewelerLogo</title>
  <rect width="267" height="16" y="42" x="1" style="fill:rgb(62, 30, 6);stroke-width:2;stroke:rgb(0, 0, 0)"/>
  <path d="M 244.32 51.74 L 246.29 51.55 C 246.41 52.21 246.65 52.69 247.01 53 C 247.38 53.31 247.87 53.47 248.48 53.47 C 249.13 53.47 249.62 53.33 249.95 53.06 C 250.28 52.78 250.45 52.46 250.45 52.09 C 250.45 51.85 250.38 51.65 250.24 51.48 C 250.1 51.32 249.86 51.17 249.51 51.05 C 249.28 50.97 248.74 50.82 247.89 50.61 C 246.81 50.34 246.05 50.01 245.61 49.62 C 244.99 49.07 244.69 48.4 244.69 47.6 C 244.69 47.09 244.83 46.62 245.12 46.17 C 245.41 45.73 245.83 45.39 246.37 45.16 C 246.92 44.92 247.57 44.81 248.34 44.81 C 249.6 44.81 250.55 45.08 251.18 45.63 C 251.82 46.19 252.15 46.92 252.19 47.84 L 250.16 47.93 C 250.08 47.42 249.89 47.05 249.61 46.82 C 249.32 46.6 248.89 46.48 248.32 46.48 C 247.74 46.48 247.28 46.6 246.94 46.84 C 246.73 47 246.62 47.21 246.62 47.47 C 246.62 47.7 246.72 47.91 246.92 48.08 C 247.18 48.29 247.8 48.51 248.78 48.75 C 249.77 48.98 250.49 49.22 250.97 49.47 C 251.44 49.71 251.81 50.05 252.07 50.48 C 252.34 50.92 252.47 51.45 252.47 52.08 C 252.47 52.66 252.31 53.19 251.99 53.69 C 251.68 54.2 251.22 54.57 250.64 54.81 C 250.06 55.06 249.33 55.18 248.46 55.18 C 247.19 55.18 246.22 54.88 245.54 54.3 C 244.86 53.71 244.46 52.86 244.32 51.74 Z M 211.83 55 L 211.83 44.98 L 216.09 44.98 C 217.16 44.98 217.94 45.07 218.43 45.25 C 218.91 45.43 219.3 45.75 219.59 46.21 C 219.88 46.67 220.03 47.2 220.03 47.79 C 220.03 48.54 219.81 49.16 219.37 49.65 C 218.93 50.14 218.26 50.45 217.38 50.58 C 217.82 50.83 218.18 51.11 218.47 51.42 C 218.75 51.72 219.14 52.27 219.62 53.04 L 220.84 55 L 218.42 55 L 216.96 52.82 C 216.44 52.04 216.09 51.55 215.89 51.35 C 215.7 51.14 215.5 51 215.29 50.93 C 215.07 50.85 214.73 50.82 214.27 50.82 L 213.86 50.82 L 213.86 55 L 211.83 55 Z M 213.86 49.22 L 215.35 49.22 C 216.33 49.22 216.93 49.18 217.17 49.09 C 217.41 49.01 217.6 48.87 217.74 48.67 C 217.88 48.47 217.95 48.22 217.95 47.92 C 217.95 47.58 217.86 47.31 217.68 47.1 C 217.5 46.89 217.24 46.76 216.91 46.71 C 216.75 46.69 216.26 46.67 215.44 46.67 L 213.86 46.67 L 213.86 49.22 Z M 47.55 55 L 47.55 44.98 L 54.98 44.98 L 54.98 46.67 L 49.57 46.67 L 49.57 48.9 L 54.6 48.9 L 54.6 50.58 L 49.57 50.58 L 49.57 53.31 L 55.17 53.31 L 55.17 55 L 47.55 55 Z M 148.19 55 L 148.19 45.06 L 150.22 45.06 L 150.22 53.31 L 155.25 53.31 L 155.25 55 L 148.19 55 Z M 115.9 55 L 115.9 44.98 L 123.33 44.98 L 123.33 46.67 L 117.92 46.67 L 117.92 48.9 L 122.95 48.9 L 122.95 50.58 L 117.92 50.58 L 117.92 53.31 L 123.52 53.31 L 123.52 55 L 115.9 55 Z M 81.21 55 L 78.82 44.98 L 80.89 44.98 L 82.4 51.86 L 84.23 44.98 L 86.64 44.98 L 88.39 51.98 L 89.93 44.98 L 91.97 44.98 L 89.53 55 L 87.39 55 L 85.39 47.51 L 83.4 55 L 81.21 55 Z M 179.59 55 L 179.59 44.98 L 187.02 44.98 L 187.02 46.67 L 181.61 46.67 L 181.61 48.9 L 186.64 48.9 L 186.64 50.58 L 181.61 50.58 L 181.61 53.31 L 187.21 53.31 L 187.21 55 L 179.59 55 Z M 20.48 44.98 L 22.49 44.98 L 22.49 51.32 C 22.49 52.15 22.42 52.79 22.28 53.24 C 22.08 53.82 21.72 54.29 21.21 54.64 C 20.69 54.99 20.02 55.17 19.17 55.17 C 18.18 55.17 17.42 54.89 16.89 54.34 C 16.36 53.79 16.09 52.97 16.08 51.9 L 17.99 51.68 C 18.01 52.26 18.1 52.66 18.24 52.9 C 18.46 53.26 18.79 53.44 19.24 53.44 C 19.69 53.44 20.01 53.31 20.2 53.06 C 20.38 52.8 20.48 52.26 20.48 51.45 L 20.48 44.98 Z" fill="#FFF"/>
  <path d="M 31.76 20.25 C 32.68 16.38 33.95 12.96 33.95 9.86 C 33.95 5.01 30.18 2 30.18 2 C 30.18 2 26.41 5.01 26.41 9.86 C 26.41 12.96 27.68 16.38 28.6 20.25 C 27.74 17.36 25.75 13.49 21.21 13.49 C 13.96 13.49 15.06 19.81 15.06 19.81 C 15.06 19.81 15.45 23.5 20.56 24.33 C 20.56 24.33 18.99 23.54 19.46 21.48 C 19.86 19.73 22.36 19.66 22.36 19.66 C 22.36 19.66 26.3 19.24 26.83 23.36 C 26.12 23.36 25.56 23.93 25.56 24.64 C 25.56 25.35 26.12 25.93 26.81 25.93 L 28.07 25.93 C 26.41 29.63 24.11 28.45 24.11 28.45 C 24.11 29.76 25.53 30.76 27.03 30.76 C 28.53 30.76 29.3 29.45 29.3 29.45 L 29.36 29.33 C 29.42 34.18 29.85 34.18 30.18 35 C 30.52 34.18 30.94 34.18 31 29.33 L 31.07 29.45 C 31.07 29.45 31.83 30.76 33.33 30.76 C 34.83 30.76 36.25 29.76 36.25 28.45 C 36.25 28.45 33.95 29.63 32.29 25.93 L 33.56 25.93 C 34.25 25.93 34.81 25.35 34.81 24.64 C 34.81 23.93 34.25 23.36 33.56 23.36 C 34.06 19.24 38 19.66 38 19.66 C 38 19.66 40.5 19.73 40.9 21.48 C 41.37 23.54 39.8 24.33 39.8 24.33 C 44.92 23.5 45.3 19.81 45.3 19.81 C 45.3 19.81 46.4 13.49 39.15 13.49 C 34.62 13.49 32.62 17.36 31.76 20.25 Z" style="fill: url(#gradient-1);"/>
  <path d="M 240.23 20.25 C 241.18 16.38 242.49 12.96 242.49 9.86 C 242.49 5.01 238.61 2 238.61 2 C 238.61 2 234.73 5.01 234.73 9.86 C 234.73 12.96 236.04 16.38 236.99 20.25 C 236.1 17.36 234.05 13.49 229.38 13.49 C 221.93 13.49 223.06 19.81 223.06 19.81 C 223.06 19.81 223.46 23.5 228.72 24.33 C 228.72 24.33 227.1 23.54 227.58 21.48 C 228 19.73 230.57 19.66 230.57 19.66 C 230.57 19.66 234.62 19.24 235.16 23.36 C 234.43 23.36 233.86 23.93 233.86 24.64 C 233.86 25.35 234.43 25.93 235.14 25.93 L 236.44 25.93 C 234.74 29.63 232.37 28.45 232.37 28.45 C 232.37 29.76 233.83 30.76 235.37 30.76 C 236.91 30.76 237.7 29.45 237.7 29.45 L 237.77 29.33 C 237.83 34.18 238.27 34.18 238.61 35 C 238.95 34.18 239.39 34.18 239.46 29.33 L 239.52 29.45 C 239.52 29.45 240.31 30.76 241.85 30.76 C 243.39 30.76 244.86 29.76 244.86 28.45 C 244.86 28.45 242.49 29.63 240.78 25.93 L 242.08 25.93 C 242.79 25.93 243.37 25.35 243.37 24.64 C 243.37 23.93 242.79 23.36 242.08 23.36 C 242.6 19.24 246.65 19.66 246.65 19.66 C 246.65 19.66 249.23 19.73 249.64 21.48 C 250.12 23.54 248.51 24.33 248.51 24.33 C 253.76 23.5 254.16 19.81 254.16 19.81 C 254.16 19.81 255.29 13.49 247.84 13.49 C 243.17 13.49 241.12 17.36 240.23 20.25 Z" style="fill: url(#gradient-0);"/>
  <g fill="#3E1E06">
    <path d="M198.67 22.9C198.58 22.48 198.41 22.14 198.13 21.86 197.86 21.59 197.41 21.46 196.78 21.46L185.06 21.46 185.06 27.31 205.28 27.31C205.62 27.31 205.87 27.2 206.04 26.97 206.21 26.74 206.33 26.22 206.42 25.42L207.17 25.42 207.17 36.2 206.42 36.2C206.33 35.65 206.21 35.32 206.04 35.19 205.87 35.06 205.62 35 205.28 35L173.85 35 173.85 34.24C174.64 34.16 175.14 34.02 175.33 33.83 175.52 33.65 175.61 33.4 175.61 33.11L175.61 3.75C175.61 3.46 175.52 3.22 175.33 3.03 175.14 2.84 174.64 2.7 173.85 2.62L173.85 1.86 205.28 1.86C205.62 1.86 205.87 1.75 206.04 1.52 206.21 1.28 206.33 0.81 206.42 0.1L207.17 0.1 207.17 11.06 206.42 11.06C206.33 10.35 206.21 9.87 206.04 9.64 205.87 9.41 205.62 9.3 205.28 9.3L185.06 9.3 185.06 14.53 196.78 14.53C197.41 14.53 197.86 14.39 198.13 14.12 198.41 13.84 198.58 13.5 198.67 13.08L199.42 13.08 199.42 22.9 198.67 22.9Z"/>
    <path d="M168.71 27.31C169.05 27.31 169.3 27.2 169.47 26.97 169.64 26.74 169.76 26.26 169.85 25.55L170.6 25.55 170.6 36.45 169.85 36.45C169.76 35.78 169.64 35.37 169.47 35.22 169.3 35.07 169.05 35 168.71 35L135.82 35 135.82 34.24C136.62 34.16 137.12 34.02 137.31 33.83 137.49 33.65 137.59 33.4 137.59 33.11L137.59 3.75C137.59 3.46 137.49 3.22 137.31 3.03 137.12 2.84 136.62 2.7 135.82 2.62L135.82 1.86 148.8 1.86 148.8 2.62C148 2.7 147.51 2.84 147.32 3.03 147.13 3.22 147.04 3.46 147.04 3.75L147.04 27.31 168.71 27.31Z"/>
    <path d="M101.84 33.61C101.84 33.82 101.91 33.98 102.06 34.09 102.2 34.19 102.51 34.24 102.97 34.24L102.97 35 91.82 35 91.82 34.24C92.28 34.16 92.62 34.02 92.83 33.83 93.04 33.65 93.25 33.3 93.46 32.8 93.54 32.58 93.75 32.02 94.09 31.09 94.42 30.17 94.86 29 95.41 27.6 95.96 26.19 96.56 24.63 97.24 22.9 97.91 21.18 98.58 19.43 99.25 17.64 99.93 15.86 100.59 14.12 101.24 12.41 101.89 10.71 102.47 9.19 102.97 7.85L104.2 4.57C104.51 3.73 104.67 3.29 104.67 3.25 104.67 3.04 104.53 2.89 104.26 2.81 103.99 2.72 103.71 2.66 103.41 2.62L103.41 1.86 119.85 1.86 119.85 2.62C119.52 2.66 119.25 2.72 119.04 2.81 118.82 2.89 118.72 3.1 118.72 3.44 118.72 3.52 118.92 4.07 119.32 5.08 119.72 6.08 120.23 7.4 120.86 9.01 121.49 10.63 122.22 12.46 123.04 14.49 123.85 16.53 124.7 18.61 125.59 20.73 126.47 22.85 127.32 24.92 128.14 26.94 128.96 28.95 129.7 30.76 130.38 32.35 130.71 33.11 130.99 33.61 131.23 33.87 131.46 34.12 131.76 34.24 132.14 34.24L132.14 35 119.73 35 119.73 34.24C120.53 34.2 120.93 33.95 120.93 33.49 120.93 33.45 120.82 33.16 120.61 32.64 120.4 32.11 120.17 31.52 119.92 30.87 119.66 30.22 119.42 29.6 119.19 29.02 118.96 28.43 118.83 28.03 118.78 27.82L103.85 27.82C103.43 28.95 103.1 29.88 102.84 30.59 102.59 31.3 102.39 31.87 102.25 32.29 102.1 32.71 101.99 33.02 101.93 33.2 101.87 33.39 101.84 33.53 101.84 33.61ZM117.15 22.78L111.03 7.78 105.43 22.78 117.15 22.78Z"/>
    <path d="M97.12 1.86L97.12 2.62C96.78 2.62 96.5 2.73 96.27 2.96 96.03 3.2 95.81 3.46 95.6 3.75L83.51 20.83 83.51 33.11C83.51 33.4 83.6 33.65 83.79 33.83 83.98 34.02 84.47 34.16 85.27 34.24L85.27 35 72.29 35 72.29 34.24C73.09 34.16 73.59 34.02 73.78 33.83 73.96 33.65 74.06 33.4 74.06 33.11L74.06 22.02 62.03 4.76C61.35 3.79 60.91 3.2 60.7 2.96 60.49 2.73 60.24 2.62 59.95 2.62L59.95 1.86 73.81 1.86 73.81 2.62C73.43 2.62 73.07 2.66 72.74 2.74 72.4 2.83 72.23 3.04 72.23 3.37 72.23 3.54 72.5 4.05 73.05 4.89 73.6 5.73 74.24 6.69 74.97 7.78 75.71 8.88 76.47 9.99 77.27 11.12 78.07 12.26 78.72 13.22 79.22 14.02 79.35 13.81 79.62 13.42 80.04 12.86 80.46 12.29 80.94 11.63 81.46 10.87 81.99 10.11 82.55 9.32 83.16 8.48 83.77 7.64 84.32 6.86 84.8 6.15 85.28 5.43 85.69 4.81 86.03 4.29 86.36 3.76 86.53 3.46 86.53 3.37 86.53 3.04 86.38 2.83 86.06 2.74 85.74 2.66 85.44 2.62 85.15 2.62L85.15 1.86 97.12 1.86Z"/>
  </g>
</svg>