<?xml version="1.0" encoding="UTF-8"?>
<svg width="269px" height="59px" viewBox="0 0 269 59" version="1.1" xmlns="http://www.w3.org/2000/svg" xmlns:xlink="http://www.w3.org/1999/xlink">
    <!-- Generator: Sketch 42 (36781) - http://www.bohemiancoding.com/sketch -->
    <title>YaleJewelerLogo</title>
    <desc>Created with Sketch.</desc>
    <defs>
        <rect id="path-1" x="0" y="0" width="269" height="18"></rect>
        <mask id="mask-2" maskContentUnits="userSpaceOnUse" maskUnits="objectBoundingBox" x="0" y="0" width="269" height="18" fill="white">
            <use xlink:href="#path-1"></use>
        </mask>
    </defs>
    <g id="Page-1" stroke="none" stroke-width="1" fill="none" fill-rule="evenodd">
        <g id="JEWELERS" transform="translate(0.000000, 41.000000)">
            <use id="Rectangle" stroke="#000000" mask="url(#mask-2)" stroke-width="2" fill="#3E1E06" xlink:href="#path-1"></use>
            <text id="text" font-family="Arial-BoldMT, Arial" font-size="14" font-weight="bold" letter-spacing="22.8999996" fill="#FFFFFF">
                <tspan x="15.8431654" y="14">JEWELER</tspan>
                <tspan x="243.818944" y="14">S</tspan>
            </text>
        </g>
        <path d="M31.7592706,20.2493084 C32.6818368,16.3805981 33.9547142,12.9646355 33.9547142,9.86448598 C33.9547142,5.00639252 30.1804707,2 30.1804707,2 C30.1804707,2 26.4074269,5.00639252 26.4074269,9.86448598 C26.4074269,12.9646355 27.6803043,16.3805981 28.6028705,20.2493084 C27.7438882,17.3564112 25.7463944,13.4877009 21.2079446,13.4877009 C13.9605813,13.4877009 15.0595028,19.8101308 15.0595028,19.8101308 C15.0595028,19.8101308 15.4458049,23.495028 20.5589091,24.3339065 C20.5589091,24.3339065 18.9873073,23.5419065 19.4587879,21.4817196 C19.8582866,19.7336449 22.358453,19.6559252 22.358453,19.6559252 C22.358453,19.6559252 26.304253,19.2377196 26.8297199,23.3568598 C26.1171005,23.3568598 25.5568425,23.9317383 25.5568425,24.6423178 C25.5568425,25.3516636 26.1171005,25.9277757 26.8069257,25.9277757 L28.0726049,25.9277757 C26.4122257,29.6287103 24.1076097,28.4456449 24.1076097,28.4456449 C24.1076097,29.7570093 25.5316488,30.758729 27.0312688,30.758729 C28.5308888,30.758729 29.2962948,29.4498318 29.2962948,29.4498318 L29.3610784,29.3301682 C29.4186638,34.1808598 29.8481549,34.1783925 30.1804707,35 C30.5151859,34.1783925 30.9434773,34.1808598 31.0022624,29.3301682 L31.0658463,29.4498318 C31.0658463,29.4498318 31.8300527,30.758729 33.3296726,30.758729 C34.8292926,30.758729 36.2545314,29.7570093 36.2545314,28.4456449 C36.2545314,28.4456449 33.9499154,29.6287103 32.2907359,25.9277757 L33.5552155,25.9277757 C34.2462403,25.9277757 34.8052986,25.3516636 34.8052986,24.6423178 C34.8052986,23.9317383 34.2462403,23.3568598 33.5552155,23.3568598 C34.0578881,19.2377196 38.0036881,19.6559252 38.0036881,19.6559252 C38.0036881,19.6559252 40.5038545,19.7336449 40.9033532,21.4817196 C41.3748338,23.5419065 39.803232,24.3339065 39.803232,24.3339065 C44.9163362,23.495028 45.3026383,19.8101308 45.3026383,19.8101308 C45.3026383,19.8101308 46.4015598,13.4877009 39.1541965,13.4877009 C34.6157467,13.4877009 32.6182529,17.3564112 31.7592706,20.2493084 Z" id="Right-Fluer-de-Lis" fill="#AD8B6D"></path>
        <path d="M240.233523,20.2493084 C241.182196,16.3805981 242.491093,12.9646355 242.491093,9.86448598 C242.491093,5.00639252 238.610046,2 238.610046,2 C238.610046,2 234.730233,5.00639252 234.730233,9.86448598 C234.730233,12.9646355 236.03913,16.3805981 236.987803,20.2493084 C236.104514,17.3564112 234.050495,13.4877009 229.383616,13.4877009 C221.931168,13.4877009 223.061187,19.8101308 223.061187,19.8101308 C223.061187,19.8101308 223.45842,23.495028 228.716215,24.3339065 C228.716215,24.3339065 227.10014,23.5419065 227.584962,21.4817196 C227.995766,19.7336449 230.566682,19.6559252 230.566682,19.6559252 C230.566682,19.6559252 234.62414,19.2377196 235.164476,23.3568598 C234.431691,23.3568598 233.855579,23.9317383 233.855579,24.6423178 C233.855579,25.3516636 234.431691,25.9277757 235.141037,25.9277757 L236.442532,25.9277757 C234.735168,29.6287103 232.365336,28.4456449 232.365336,28.4456449 C232.365336,29.7570093 233.829673,30.758729 235.371729,30.758729 C236.913785,30.758729 237.70085,29.4498318 237.70085,29.4498318 L237.767467,29.3301682 C237.826682,34.1808598 238.268327,34.1783925 238.610046,35 C238.954233,34.1783925 239.394645,34.1808598 239.455093,29.3301682 L239.520476,29.4498318 C239.520476,29.4498318 240.306308,30.758729 241.848364,30.758729 C243.39042,30.758729 244.85599,29.7570093 244.85599,28.4456449 C244.85599,28.4456449 242.486159,29.6287103 240.780028,25.9277757 L242.080289,25.9277757 C242.790869,25.9277757 243.365747,25.3516636 243.365747,24.6423178 C243.365747,23.9317383 242.790869,23.3568598 242.080289,23.3568598 C242.597187,19.2377196 246.654645,19.6559252 246.654645,19.6559252 C246.654645,19.6559252 249.22556,19.7336449 249.636364,21.4817196 C250.121187,23.5419065 248.505112,24.3339065 248.505112,24.3339065 C253.762906,23.495028 254.16014,19.8101308 254.16014,19.8101308 C254.16014,19.8101308 255.290159,13.4877009 247.83771,13.4877009 C243.170831,13.4877009 241.116813,17.3564112 240.233523,20.2493084 Z" id="Left-Fluer-de-Lis" fill="#AD8B6D"></path>
        <g id="YALE" transform="translate(57.000000, -13.000000)" font-size="63" font-family="Copperplate-Bold, Copperplate" letter-spacing="-4" fill="#3E1E06" font-weight="bold">
            <text id="ALE">
                <tspan x="32.236" y="48">AL</tspan>
                <tspan x="111.743" y="48">E</tspan>
            </text>
            <text id="Y">
                <tspan x="0.4895" y="48">Y</tspan>
            </text>
        </g>
    </g>
</svg>