<?xml version="1.0" encoding="UTF-8"?>
<svg width="269px" height="59px" viewBox="0 0 269 59" version="1.1" xmlns="http://www.w3.org/2000/svg" xmlns:xlink="http://www.w3.org/1999/xlink">
    <!-- Generator: Sketch 42 (36781) - http://www.bohemiancoding.com/sketch -->
    <title>YaleJewelerLogo</title>
    <desc>Created with Sketch.</desc>
    <defs>
        <rect id="path-1" x="0" y="0" width="269" height="18"></rect>
        <mask id="mask-2" maskContentUnits="userSpaceOnUse" maskUnits="objectBoundingBox" x="0" y="0" width="269" height="18" fill="white">
            <use xlink:href="#path-1"></use>
        </mask>
    </defs>
    <g id="Page-1" stroke="none" stroke-width="1" fill="none" fill-rule="evenodd">
        <g id="JEWELERS" transform="translate(0.000000, 41.000000)">
            <use id="Rectangle" stroke="#000000" mask="url(#mask-2)" stroke-width="2" fill="#3E1E06" xlink:href="#path-1"></use>
            <text id="text" font-family="Arial-BoldMT, Arial" font-size="14" font-weight="bold" letter-spacing="22.8999996" fill="#FFFFFF">
                <tspan x="15.8431654" y="14">JEWELER</tspan>
                <tspan x="243.818944" y="14">S</tspan>
            </text>
        </g>
        <path d="M25.7592706,20.2493084 C26.6818368,16.3805981 27.9547142,12.9646355 27.9547142,9.86448598 C27.9547142,5.00639252 24.1804707,2 24.1804707,2 C24.1804707,2 20.4074269,5.00639252 20.4074269,9.86448598 C20.4074269,12.9646355 21.6803043,16.3805981 22.6028705,20.2493084 C21.7438882,17.3564112 19.7463944,13.4877009 15.2079446,13.4877009 C7.96058126,13.4877009 9.05950276,19.8101308 9.05950276,19.8101308 C9.05950276,19.8101308 9.44580486,23.495028 14.5589091,24.3339065 C14.5589091,24.3339065 12.9873073,23.5419065 13.4587879,21.4817196 C13.8582866,19.7336449 16.358453,19.6559252 16.358453,19.6559252 C16.358453,19.6559252 20.304253,19.2377196 20.8297199,23.3568598 C20.1171005,23.3568598 19.5568425,23.9317383 19.5568425,24.6423178 C19.5568425,25.3516636 20.1171005,25.9277757 20.8069257,25.9277757 L22.0726049,25.9277757 C20.4122257,29.6287103 18.1076097,28.4456449 18.1076097,28.4456449 C18.1076097,29.7570093 19.5316488,30.758729 21.0312688,30.758729 C22.5308888,30.758729 23.2962948,29.4498318 23.2962948,29.4498318 L23.3610784,29.3301682 C23.4186638,34.1808598 23.8481549,34.1783925 24.1804707,35 C24.5151859,34.1783925 24.9434773,34.1808598 25.0022624,29.3301682 L25.0658463,29.4498318 C25.0658463,29.4498318 25.8300527,30.758729 27.3296726,30.758729 C28.8292926,30.758729 30.2545314,29.7570093 30.2545314,28.4456449 C30.2545314,28.4456449 27.9499154,29.6287103 26.2907359,25.9277757 L27.5552155,25.9277757 C28.2462403,25.9277757 28.8052986,25.3516636 28.8052986,24.6423178 C28.8052986,23.9317383 28.2462403,23.3568598 27.5552155,23.3568598 C28.0578881,19.2377196 32.0036881,19.6559252 32.0036881,19.6559252 C32.0036881,19.6559252 34.5038545,19.7336449 34.9033532,21.4817196 C35.3748338,23.5419065 33.803232,24.3339065 33.803232,24.3339065 C38.9163362,23.495028 39.3026383,19.8101308 39.3026383,19.8101308 C39.3026383,19.8101308 40.4015598,13.4877009 33.1541965,13.4877009 C28.6157467,13.4877009 26.6182529,17.3564112 25.7592706,20.2493084 Z" id="Right-Fluer-de-Lis" fill="#AD8B6D"></path>
        <path d="M241.233523,20.2493084 C242.182196,16.3805981 243.491093,12.9646355 243.491093,9.86448598 C243.491093,5.00639252 239.610046,2 239.610046,2 C239.610046,2 235.730233,5.00639252 235.730233,9.86448598 C235.730233,12.9646355 237.03913,16.3805981 237.987803,20.2493084 C237.104514,17.3564112 235.050495,13.4877009 230.383616,13.4877009 C222.931168,13.4877009 224.061187,19.8101308 224.061187,19.8101308 C224.061187,19.8101308 224.45842,23.495028 229.716215,24.3339065 C229.716215,24.3339065 228.10014,23.5419065 228.584962,21.4817196 C228.995766,19.7336449 231.566682,19.6559252 231.566682,19.6559252 C231.566682,19.6559252 235.62414,19.2377196 236.164476,23.3568598 C235.431691,23.3568598 234.855579,23.9317383 234.855579,24.6423178 C234.855579,25.3516636 235.431691,25.9277757 236.141037,25.9277757 L237.442532,25.9277757 C235.735168,29.6287103 233.365336,28.4456449 233.365336,28.4456449 C233.365336,29.7570093 234.829673,30.758729 236.371729,30.758729 C237.913785,30.758729 238.70085,29.4498318 238.70085,29.4498318 L238.767467,29.3301682 C238.826682,34.1808598 239.268327,34.1783925 239.610046,35 C239.954233,34.1783925 240.394645,34.1808598 240.455093,29.3301682 L240.520476,29.4498318 C240.520476,29.4498318 241.306308,30.758729 242.848364,30.758729 C244.39042,30.758729 245.85599,29.7570093 245.85599,28.4456449 C245.85599,28.4456449 243.486159,29.6287103 241.780028,25.9277757 L243.080289,25.9277757 C243.790869,25.9277757 244.365747,25.3516636 244.365747,24.6423178 C244.365747,23.9317383 243.790869,23.3568598 243.080289,23.3568598 C243.597187,19.2377196 247.654645,19.6559252 247.654645,19.6559252 C247.654645,19.6559252 250.22556,19.7336449 250.636364,21.4817196 C251.121187,23.5419065 249.505112,24.3339065 249.505112,24.3339065 C254.762906,23.495028 255.16014,19.8101308 255.16014,19.8101308 C255.16014,19.8101308 256.290159,13.4877009 248.83771,13.4877009 C244.170831,13.4877009 242.116813,17.3564112 241.233523,20.2493084 Z" id="Left-Fluer-de-Lis" fill="#AD8B6D"></path>
        <g id="YALE" transform="translate(57.000000, -13.000000)" font-size="63" font-family="Copperplate-Bold, Copperplate" letter-spacing="-4" fill="#3E1E06" font-weight="bold">
            <text id="ALE">
                <tspan x="32.236" y="48">AL</tspan>
                <tspan x="111.743" y="48">E</tspan>
            </text>
            <text id="Y">
                <tspan x="0.4895" y="48">Y</tspan>
            </text>
        </g>
    </g>
</svg>